<?xml version="1.0" encoding="UTF-8" standalone="no"?>
<!-- Created with Inkscape (http://www.inkscape.org/) -->

<svg
   xmlns:dc="http://purl.org/dc/elements/1.1/"
   xmlns:cc="http://creativecommons.org/ns#"
   xmlns:rdf="http://www.w3.org/1999/02/22-rdf-syntax-ns#"
   xmlns:svg="http://www.w3.org/2000/svg"
   xmlns="http://www.w3.org/2000/svg"
   xmlns:sodipodi="http://sodipodi.sourceforge.net/DTD/sodipodi-0.dtd"
   xmlns:inkscape="http://www.inkscape.org/namespaces/inkscape"
   version="1.1"
   id="svg2"
   width="182.84396"
   height="40.761589"
   viewBox="0 0 182.84396 40.761589"
   sodipodi:docname="logo-fresh1.svg"
   inkscape:version="0.92.1 r15371">
  <metadata
     id="metadata8">
    <rdf:RDF>
      <cc:Work
         rdf:about="">
        <dc:format>image/svg+xml</dc:format>
        <dc:type
           rdf:resource="http://purl.org/dc/dcmitype/StillImage" />
        <dc:title></dc:title>
      </cc:Work>
    </rdf:RDF>
  </metadata>
  <defs
     id="defs6" />
  <sodipodi:namedview
     pagecolor="#ffffff"
     bordercolor="#666666"
     borderopacity="1"
     objecttolerance="10"
     gridtolerance="10"
     guidetolerance="10"
     inkscape:pageopacity="0"
     inkscape:pageshadow="2"
     inkscape:window-width="1366"
     inkscape:window-height="705"
     id="namedview4"
     showgrid="false"
     fit-margin-top="0"
     fit-margin-left="0"
     fit-margin-right="0"
     fit-margin-bottom="0"
     inkscape:zoom="1.9487179"
     inkscape:cx="14.826272"
     inkscape:cy="17.775633"
     inkscape:window-x="-8"
     inkscape:window-y="-8"
     inkscape:window-maximized="1"
     inkscape:current-layer="svg2" />
  <g
     id="g12"
     transform="translate(-6.1261703,-10.238409)">
    <path
       style="fill:#fefefe"
       d="m 158.25218,47.5 c -0.0111,-2.2 0.18461,-3.217747 0.4349,-2.261659 0.25029,0.956087 0.25937,2.756087 0.0202,4 C 158.46807,50.482253 158.26328,49.7 158.25218,47.5 Z M 11,45.333333 c 0,-2.016666 0.267582,-3.399084 0.594626,-3.07204 C 12.525762,43.192429 12.709057,49 11.807309,49 11.363289,49 11,47.35 11,45.333333 Z M 34.5,48 c 0.339919,-0.55 0.816476,-1 1.059017,-1 C 35.801558,47 36,47.45 36,48 36,48.55 35.523442,49 34.940983,49 34.358524,49 34.160081,48.55 34.5,48 Z m 27.657895,-1 c 0,-1.375 0.226973,-1.9375 0.504386,-1.25 0.277412,0.6875 0.277412,1.8125 0,2.5 -0.277413,0.6875 -0.504386,0.125 -0.504386,-1.25 z m 44.999995,0 c 0,-1.375 0.22698,-1.9375 0.50439,-1.25 0.27741,0.6875 0.27741,1.8125 0,2.5 -0.27741,0.6875 -0.50439,0.125 -0.50439,-1.25 z M 112.5,48 c -0.33992,-0.55 -0.14148,-1 0.44098,-1 0.58246,0 1.05902,0.45 1.05902,1 0,0.55 -0.19844,1 -0.44098,1 -0.24254,0 -0.7191,-0.45 -1.05902,-1 z m 14.63832,-0.333333 c -0.82691,-0.996363 -0.77361,-1.333334 0.21089,-1.333334 0.7246,0 1.31746,0.6 1.31746,1.333334 C 128.66667,48.4 128.57177,49 128.45578,49 c -0.11599,0 -0.70885,-0.6 -1.31746,-1.333333 z M 178.5,46.5 c 0,-1.375 0.3375,-2.5 0.75,-2.5 0.4125,0 0.75,1.125 0.75,2.5 0,1.375 -0.3375,2.5 -0.75,2.5 -0.4125,0 -0.75,-1.125 -0.75,-2.5 z M 22.078947,46.416667 c 0.04798,-1.164943 0.284941,-1.4019 0.604167,-0.604167 0.288871,0.721875 0.253344,1.584375 -0.07895,1.916667 -0.332292,0.332291 -0.568641,-0.258334 -0.52522,-1.3125 z M 98.157895,46 c 0,-1.375 0.226973,-1.9375 0.504386,-1.25 0.277412,0.6875 0.277412,1.8125 0,2.5 -0.277413,0.6875 -0.504386,0.125 -0.504386,-1.25 z M 58,44.940983 c 0,-0.582459 0.45,-0.780902 1,-0.440983 0.55,0.339919 1,0.816476 1,1.059017 C 60,45.801558 59.55,46 59,46 58.45,46 58,45.523442 58,44.940983 Z m 113.6013,0.222929 c -0.25451,-0.411807 0.40608,-0.814187 1.46798,-0.894177 2.29656,-0.172995 2.4986,0.29837 0.46275,1.079602 -0.80739,0.309823 -1.67622,0.226382 -1.93073,-0.185425 z M 167,33.622445 c 0,-0.207656 0.7875,-0.995156 1.75,-1.75 1.58606,-1.243871 1.62143,-1.208501 0.37756,0.377555 C 167.82119,33.915748 167,34.445479 167,33.622445 Z m 7,-1 c 0,-0.207656 0.7875,-0.995156 1.75,-1.75 1.58606,-1.243871 1.62143,-1.208501 0.37756,0.377555 C 174.82119,32.915748 174,33.445479 174,32.622445 Z M 67.194949,28.5 c 0.02038,-1.65 0.244498,-2.203936 0.498042,-1.230968 0.253543,0.972967 0.236869,2.322967 -0.03705,3 C 67.382014,30.946064 67.174569,30.15 67.194949,28.5 Z M 72.272364,26 c 0,-2.475 0.195016,-3.4875 0.433369,-2.25 0.238353,1.2375 0.238353,3.2625 0,4.5 C 72.46738,29.4875 72.272364,28.475 72.272364,26 Z M 74,29.622445 c 0,-0.207656 0.7875,-0.995156 1.75,-1.75 C 77.336056,26.628574 77.371426,26.663944 76.127555,28.25 74.821186,29.915748 74,30.445479 74,29.622445 Z M 21.920906,25.750907 c -0.297648,-2.149734 -0.14485,-3.374851 0.358178,-2.871823 0.482499,0.482499 0.716091,2.169591 0.519093,3.749094 -0.329717,2.643618 -0.399428,2.573907 -0.877271,-0.877271 z m 135.424174,1.705965 c -0.32569,-0.848721 -0.36872,-1.766569 -0.0956,-2.039663 0.27309,-0.273095 0.73656,0.421313 1.02992,1.543128 0.62315,2.382929 -0.0692,2.750891 -0.9343,0.496535 z M 10.157895,23 c 0,-1.375 0.226973,-1.9375 0.504386,-1.25 0.277412,0.6875 0.277412,1.8125 0,2.5 -0.277413,0.6875 -0.504386,0.125 -0.504386,-1.25 z M 47,19.833333 c 0,-1.191666 0.313025,-1.853641 0.695611,-1.471055 C 48.776422,19.443089 48.92818,22 47.911516,22 47.410182,22 47,21.025 47,19.833333 Z M 84.157895,20 c 0,-1.375 0.226973,-1.9375 0.504386,-1.25 0.277412,0.6875 0.277412,1.8125 0,2.5 -0.277413,0.6875 -0.504386,0.125 -0.504386,-1.25 z m 27.455195,-0.182979 c 0.28881,-0.467304 0.94401,-0.590747 1.45601,-0.274316 1.30838,0.808625 1.16106,1.123962 -0.52511,1.123962 -0.80081,0 -1.21971,-0.382341 -0.9309,-0.849646 z m 28.46586,-5.400354 c 0.048,-1.164943 0.28494,-1.4019 0.60416,-0.604167 0.28887,0.721875 0.25335,1.584375 -0.0789,1.916667 -0.3323,0.332291 -0.56864,-0.258334 -0.52522,-1.3125 z"
       id="path18"
       inkscape:connector-curvature="0" />
    <path
       style="fill:#fdfdfd"
       d="m 16.176603,48.076759 c -0.800452,-2.296177 -0.714181,-3.040229 0.402175,-3.468615 0.781672,-0.299956 1.452227,-0.221998 1.490122,0.173241 0.0379,0.395238 0.232196,1.956115 0.43178,3.468615 0.479731,3.635517 -1.035716,3.522553 -2.324077,-0.173241 z m 77.000073,1.256107 C 93.354504,48.415943 93.95,47.590943 94.5,47.499533 c 0.55,-0.09141 0.68778,0.01287 0.306177,0.231741 -0.381603,0.218868 -0.445958,1.043868 -0.143011,1.833334 C 94.966112,50.354073 94.682837,51 94.033665,51 93.384493,51 92.998848,50.24979 93.176676,49.332866 Z m 20.253434,-1.717168 c -0.90068,-2.877635 -0.82503,-3.350157 0.50531,-3.156226 0.99817,0.145508 1.62359,1.370695 1.72758,3.384302 0.21374,4.138708 -0.90177,4.024765 -2.23289,-0.228076 z M 41.398692,48.25 C 41.79433,47.5625 41.641476,47 41.059017,47 40.476558,47 40,46.325 40,45.5 40,44.675 40.476558,44 41.059017,44 c 0.582459,0 0.737931,-0.519529 0.345491,-1.154508 -0.392439,-0.63498 -0.290196,-0.892877 0.227205,-0.573106 1.136103,0.70215 1.050146,5.409919 -0.118139,6.470381 C 41.05475,49.159245 41.003053,48.9375 41.398692,48.25 Z m 3.520066,0.5 c -0.569531,-1.752586 -0.272599,-6.031314 0.449529,-6.477614 0.517401,-0.319771 0.619644,-0.06187 0.227205,0.573106 C 45.150094,43.56616 45.608729,44 46.815983,44 48.212268,44 48.75,44.695098 48.75,46.5 48.75,47.875 48.35625,49 47.875,49 47.39375,49 47,48.55 47,48 47,47.45 46.523442,47 45.940983,47 45.358524,47 45.160081,47.45 45.5,48 c 0.339919,0.55 0.366476,1 0.05902,1 -0.307459,0 -0.595576,-0.1125 -0.640259,-0.25 z m 7.811058,-1.824818 C 53.308833,44.711018 55,44.314579 55,46.393011 c 0,0.766156 -0.624067,1.632488 -1.386815,1.925182 -0.972878,0.373328 -1.236546,-0.04246 -0.883369,-1.393011 z M 63,46.753279 c 0,-1.957386 0.480668,-2.592774 1.881592,-2.487245 1.892638,0.142568 2.245309,2.006573 0.653694,3.455022 C 65.064521,48.149475 65.009867,47.825 65.413832,47 65.817798,46.175 65.439944,46.373508 64.574157,47.44113 63.048889,49.321973 63,49.30061 63,46.753279 Z M 72.25,46.5 c 0,-1.375 0.39375,-2.5 0.875,-2.5 0.48125,0 0.875,0.45 0.875,1 0,0.55 0.675,1 1.5,1 0.833333,0 1.5,-0.888889 1.5,-2 0,-1.1 0.45,-2 1,-2 0.55,0 1,0.498145 1,1.106989 0,0.608844 0.698372,0.838998 1.551938,0.511454 0.889925,-0.341496 1.291322,-0.173849 0.940983,0.393011 -0.336025,0.5437 -1.371897,0.991318 -2.301938,0.994707 -1.072562,0.0039 -0.647199,0.550542 1.163095,1.494693 1.569743,0.818693 3.369743,1.199903 4,0.847135 0.759139,-0.424907 0.738314,-0.20115 -0.0617,0.662925 -0.992296,1.071757 -1.496221,1.064804 -2.826216,-0.03899 -1.360416,-1.129045 -1.778092,-1.114309 -2.618512,0.09238 -0.762746,1.095164 -1.12022,1.13921 -1.507118,0.185698 C 76.738277,46.765733 74,46.560805 74,48 c 0,0.55 -0.39375,1 -0.875,1 -0.48125,0 -0.875,-1.125 -0.875,-2.5 z m 15,1.837719 C 85.490258,47.627648 85.694488,45.331214 87.581787,44.606989 89.791038,43.75922 89.75,43.72339 89.75,46.5 c 0,2.537995 -0.270944,2.737163 -2.5,1.837719 z M 99,46.385282 c 0,-1.49483 0.481606,-2.391413 1.16263,-2.164406 1.70101,0.567003 1.87156,3.552028 0.23874,4.178599 C 99.425153,48.774084 99,48.16301 99,46.385282 Z M 102.92349,48.25 c -0.0421,-0.4125 -0.22726,-1.5375 -0.41152,-2.5 -0.18425,-0.9625 0.23778,-1.75 0.93784,-1.75 0.81848,0 1.10225,0.892428 0.79494,2.5 -0.4581,2.396375 -1.16042,3.326604 -1.32126,1.75 z m 22.73149,0 c -0.25469,-0.4125 0.68774,-0.819191 2.09427,-0.903757 1.84381,-0.110857 2.1658,0.09413 1.15404,0.734687 -1.73174,1.09639 -2.64638,1.143996 -3.24831,0.16907 z m 6.26851,0.433117 c -0.0421,-0.100714 -0.227,-0.96883 -0.41093,-1.929146 -0.419,-2.187596 0.64238,-2.9007 2.53519,-1.703301 0.99657,0.63044 1.06003,0.923509 0.20225,0.934017 -0.6875,0.0084 -1.25,0.423184 -1.25,0.921693 0,0.49851 0.89494,0.672349 1.98875,0.38631 1.09382,-0.286039 1.76148,-0.887815 1.48369,-1.337282 -0.27778,-0.449466 -0.0477,-1.099863 0.51125,-1.445327 0.58089,-0.359009 1.01631,0.403055 1.01631,1.778722 0,1.988642 -0.52126,2.421658 -3,2.492134 -1.65,0.04691 -3.03443,0.0029 -3.07651,-0.09782 z m 25,0.06688 c -0.63254,-2.066819 -0.56379,-3.854271 0.16558,-4.305046 0.50101,-0.309643 0.91093,0.58857 0.91093,1.996029 0,2.035487 -0.70043,3.53785 -1.07651,2.309017 z M 162.4,46.579901 c 0,-1.379404 0.65747,-2.233949 1.78406,-2.318812 1.27848,-0.09631 1.69306,0.461878 1.46295,1.969708 -0.43769,2.868001 -3.24701,3.170047 -3.24701,0.349104 z m 5.3156,1.802361 C 166.97441,47.641079 169.16121,44 170.34754,44 c 0.47654,0 0.59845,0.698372 0.2709,1.551938 -0.32754,0.853566 -0.18178,1.296225 0.32392,0.983688 0.50569,-0.312537 1.18995,-0.130563 1.52057,0.404388 0.33061,0.534951 1.37421,0.695593 2.3191,0.356983 0.94488,-0.338611 1.42735,-0.29084 1.07215,0.106157 -0.85616,0.956908 -7.37637,1.741319 -8.13858,0.979108 z M 12,46.5 c 0,-0.825 0.375,-1.5 0.833333,-1.5 0.458334,0 0.833334,0.675 0.833334,1.5 0,0.825 -0.375,1.5 -0.833334,1.5 C 12.375,48 12,47.325 12,46.5 Z m 14.863153,0.878949 c 1.025408,-0.467175 1.066575,-0.804345 0.166154,-1.360836 -0.85882,-0.53078 -0.729003,-0.919373 0.459496,-1.375443 1.186105,-0.455151 1.564873,-0.163242 1.333846,1.027971 C 28.645192,46.585635 27.825,47.484057 27,47.667134 c -1.110493,0.24643 -1.146028,0.171597 -0.136847,-0.288185 z M 32.098893,45.75 C 30.721601,43.50799 30.724298,43.506765 32.858346,45.404988 35.149634,47.443074 35.446274,48 34.240547,48 33.822848,48 32.859103,46.9875 32.098893,45.75 Z M 118,47 c 1.23508,-0.798169 1.2498,-0.972079 0.0833,-0.984687 -0.77916,-0.0084 -1.18107,-0.250905 -0.89312,-0.538852 0.28794,-0.287946 1.30067,-0.225322 2.25051,0.139164 1.36879,0.525253 1.45032,0.838069 0.39313,1.508226 -0.73362,0.465038 -1.78385,0.845523 -2.33385,0.845523 -0.55,0 -0.325,-0.436218 0.5,-0.969374 z m 32,0 c -1,-0.64625 -1.08333,-0.974479 -0.25,-0.984687 C 150.4375,46.006891 151,45.325 151,44.5 c 0,-0.825 0.46583,-1.5 1.03518,-1.5 0.71292,0 0.71352,0.601046 0.002,1.930699 -0.86284,1.612225 -0.66245,2.002143 1.21482,2.363818 1.94109,0.373972 1.97497,0.449625 0.24809,0.553988 C 152.4,47.914983 150.825,47.533156 150,47 Z M 95,44.940983 c 0,-0.582459 0.45,-0.780902 1,-0.440983 0.55,0.339919 1,0.816476 1,1.059017 C 97,45.801558 96.55,46 96,46 95.45,46 95,45.523442 95,44.940983 Z m 13.50708,0.07047 c -0.35034,-0.56686 0.0511,-0.734507 0.94098,-0.393011 C 111.18048,45.283234 111.49745,46 110.05902,46 c -0.51754,0 -1.21592,-0.444846 -1.55194,-0.988547 z M 125.5,45 c 0.33992,-0.55 1.06803,-1 1.61803,-1 0.55,0 0.72189,0.45 0.38197,1 -0.33992,0.55 -1.06803,1 -1.61803,1 -0.55,0 -0.72189,-0.45 -0.38197,-1 z M 64,42 c -0.825,-0.533156 -1.05,-0.969374 -0.5,-0.969374 0.55,0 1.675,0.436218 2.5,0.969374 0.825,0.533156 1.05,0.969374 0.5,0.969374 -0.55,0 -1.675,-0.436218 -2.5,-0.969374 z M 23.458881,32.933469 c -0.362533,-0.586592 -0.444683,-1.281 -0.182555,-1.543128 0.262128,-0.262129 0.743066,0.21781 1.068751,1.066531 0.676184,1.762107 0.09985,2.072058 -0.886196,0.476597 z m 50,0 c -0.362533,-0.586592 -0.444683,-1.281 -0.182555,-1.543128 0.262128,-0.262129 0.743066,0.21781 1.068751,1.066531 0.676184,1.762107 0.09985,2.072058 -0.886196,0.476597 z m 62.048199,0.07798 c -0.35034,-0.56686 0.0511,-0.734507 0.94098,-0.393011 C 138.18048,33.283234 138.49745,34 137.05902,34 c -0.51754,0 -1.21592,-0.444846 -1.55194,-0.988546 z M 14.881162,29.781418 c 0.460363,-2.776922 0.601205,-2.917763 0.916083,-0.916083 0.204647,1.300934 -0.04015,2.777573 -0.543999,3.281419 -0.554777,0.554777 -0.701528,-0.378117 -0.372084,-2.365336 z m 22.61329,1.212451 c -0.998538,-1.103372 -1.630783,-2.184298 -1.404988,-2.402059 0.225795,-0.217761 1.219044,0.684998 2.207221,2.006131 2.182386,2.917718 1.696826,3.157357 -0.802233,0.395928 z m 5.588881,1.745474 c 0.229167,-0.143361 1.371979,-1.061351 2.539581,-2.039977 2.051152,-1.719171 2.141453,-1.708428 2.671326,0.317808 0.434515,1.661589 0.271715,1.86749 -0.783887,0.991419 C 46.590196,31.24493 45.977585,31.227251 45.530011,31.951442 45.173586,32.528149 44.383524,33 43.774316,33 43.165109,33 42.854167,32.882704 43.083333,32.739343 Z m 53.896611,-1.263509 c -0.69572,-0.838291 -1.071285,-1.717826 -0.83459,-1.954522 0.236696,-0.236695 0.979634,0.44918 1.650975,1.524166 1.451813,2.324723 0.967628,2.57996 -0.816385,0.430356 z M 101.08029,31 C 102.5381,27.938968 103,27.371661 103,28.642204 c 0,0.536545 -0.69982,1.849045 -1.55517,2.916666 C 99.978456,33.389176 99.957643,33.357268 101.08029,31 Z m 20.41416,-0.0061 c -0.99854,-1.103372 -1.63078,-2.184298 -1.40499,-2.402059 0.2258,-0.217761 1.21905,0.684998 2.20722,2.006131 2.18239,2.917718 1.69683,3.157357 -0.80223,0.395928 z m 5.58888,1.745474 c 0.22917,-0.143361 1.54167,-1.155861 2.91667,-2.25 L 132.5,28.5 l -1.90499,2.25 c -1.04774,1.2375 -2.36024,2.25 -2.91666,2.25 -0.55643,0 -0.82418,-0.117296 -0.59502,-0.260657 z M 27.252183,28.5 c -0.0111,-2.2 0.184605,-3.217747 0.434897,-2.261659 0.250293,0.956087 0.259374,2.756087 0.02018,4 C 27.468068,31.482253 27.263283,30.7 27.252183,28.5 Z m 35.826764,1.916667 c 0.04798,-1.164943 0.284941,-1.4019 0.604167,-0.604167 0.288871,0.721875 0.253344,1.584375 -0.07895,1.916667 -0.332292,0.332291 -0.568641,-0.258334 -0.52522,-1.3125 z M 154,31.622445 c 0,-0.207656 0.7875,-0.995156 1.75,-1.75 1.58606,-1.243871 1.62143,-1.208501 0.37756,0.377555 C 154.82119,31.915748 154,32.445479 154,31.622445 Z M 11.078947,29.416667 c 0.04798,-1.164943 0.284941,-1.4019 0.604167,-0.604167 0.288871,0.721875 0.253344,1.584375 -0.07895,1.916667 -0.332292,0.332291 -0.568641,-0.258334 -0.52522,-1.3125 z M 134.29966,26 c 0,-3.025 0.18747,-4.2625 0.41659,-2.75 0.22913,1.5125 0.22913,3.9875 0,5.5 -0.22912,1.5125 -0.41659,0.275 -0.41659,-2.75 z m 9.54313,-0.50286 c 0.30977,-4.975073 0.16523,-5.447911 -1.5,-4.907032 -1.44858,0.470512 -1.53775,0.382047 -0.41684,-0.413538 0.78428,-0.556652 1.58195,-2.034276 1.77261,-3.28361 C 144.46361,11.87994 145,14.12222 145,22.333333 c 0,4.766667 -0.3375,8.667281 -0.75,8.66803 -0.4125,7.5e-4 -0.59574,-2.476151 -0.40721,-5.504223 z m 26.78075,3.964201 c -0.34295,-0.893704 -0.58486,-2.375612 -0.53759,-3.293128 0.0473,-0.917517 0.4824,-0.340833 0.96694,1.28152 0.94266,3.156254 0.60928,4.71823 -0.42935,2.011608 z m -64.16466,-0.527872 c -0.36253,-0.586592 -0.44468,-1.281 -0.18255,-1.543128 0.26212,-0.262129 0.74306,0.21781 1.06875,1.066531 0.67618,1.762107 0.0999,2.072058 -0.8862,0.476597 z M 118.11499,28 c 0.0464,-0.825 0.44466,-2.625 0.88501,-4 l 0.80064,-2.5 0.0844,2.5 c 0.0464,1.375 -0.35185,3.175 -0.88501,4 -0.86167,1.333333 -0.96,1.333333 -0.88501,0 z M 85.078947,26.416667 c 0.04798,-1.164943 0.284941,-1.4019 0.604167,-0.604167 0.288871,0.721875 0.253344,1.584375 -0.07895,1.916667 -0.332292,0.332291 -0.568641,-0.258334 -0.52522,-1.3125 z m 8.621179,-0.07759 c 0.280194,-0.730174 0.91229,-1.078617 1.404659,-0.774316 1.369438,0.846359 1.065129,2.101906 -0.509444,2.101906 -0.772563,0 -1.17541,-0.597416 -0.895215,-1.32759 z m 19.418284,0.734103 c -1.00461,-0.620881 -0.94645,-0.92519 0.26572,-1.390343 0.8535,-0.327519 1.79857,-0.196237 2.10016,0.291739 0.78841,1.275671 -0.84908,2.036042 -2.36588,1.098604 z M 149,26.5 c 0,-0.825 0.17686,-1.5 0.39301,-1.5 0.21616,0 0.65203,0.675 0.96862,1.5 0.31658,0.825 0.13972,1.5 -0.39301,1.5 C 149.43588,28 149,27.325 149,26.5 Z m 9.232,-1.5 c 0,-1.925 0.2058,-2.7125 0.45733,-1.75 0.25152,0.9625 0.25152,2.5375 0,3.5 C 158.4378,27.7125 158.232,26.925 158.232,25 Z m 7.96295,0.5 c 0.0204,-1.65 0.2445,-2.203936 0.49804,-1.230968 0.25354,0.972967 0.23687,2.322967 -0.0371,3 C 166.38201,27.946064 166.17457,27.15 166.19495,25.5 Z m 14.26393,1.433469 c -0.36253,-0.586592 -0.44468,-1.281 -0.18255,-1.543128 0.26212,-0.262129 0.74306,0.21781 1.06875,1.066531 0.67618,1.762107 0.0999,2.072058 -0.8862,0.476597 z M 34.881162,24.218582 c -0.329444,-1.987219 -0.182693,-2.920113 0.372084,-2.365336 0.503846,0.503846 0.748646,1.980485 0.543999,3.281419 -0.314878,2.00168 -0.45572,1.860839 -0.916083,-0.916083 z m 9.661543,1.850516 c -0.316431,-0.511996 -0.192988,-1.167201 0.274316,-1.456011 0.467305,-0.28881 0.849646,0.130095 0.849646,0.930902 0,1.686167 -0.315337,1.833491 -1.123962,0.525109 z m 84.000005,0 c -0.31644,-0.511996 -0.19299,-1.167201 0.27431,-1.456011 0.46731,-0.28881 0.84965,0.130095 0.84965,0.930902 0,1.686167 -0.31534,1.833491 -1.12396,0.525109 z M 50,24.5 C 49.315311,23.675 48.980111,23 49.255111,23 c 0.275,0 1.0602,0.675 1.744889,1.5 0.684689,0.825 1.019889,1.5 0.744889,1.5 -0.275,0 -1.0602,-0.675 -1.744889,-1.5 z m 17.078947,-0.08333 c 0.04798,-1.164943 0.284941,-1.4019 0.604167,-0.604167 0.288871,0.721875 0.253344,1.584375 -0.07895,1.916667 -0.332292,0.332291 -0.568641,-0.258334 -0.52522,-1.3125 z M 55,23.5 C 54.315311,22.675 53.980111,22 54.255111,22 c 0.275,0 1.0602,0.675 1.744889,1.5 0.684689,0.825 1.019889,1.5 0.744889,1.5 -0.275,0 -1.0602,-0.675 -1.744889,-1.5 z M 139.15789,23 c 0,-1.375 0.22698,-1.9375 0.50439,-1.25 0.27741,0.6875 0.27741,1.8125 0,2.5 -0.27741,0.6875 -0.50439,0.125 -0.50439,-1.25 z m -40.574941,0.134215 c -0.430771,-0.697003 -0.513159,-1.537338 -0.183085,-1.867413 0.894961,-0.894961 1.870766,0.421303 1.387387,1.871444 -0.338725,1.016175 -0.574267,1.015386 -1.204302,-0.004 z m 71.496001,-0.717548 c 0.048,-1.164943 0.28494,-1.4019 0.60416,-0.604167 0.28887,0.721875 0.25335,1.584375 -0.0789,1.916667 -0.3323,0.332291 -0.56864,-0.258334 -0.52522,-1.3125 z M 22.002436,23 c -0.818271,-2.631798 -0.734646,-4.13221 0.179365,-3.218199 0.57376,0.57376 0.8031,1.645074 0.509646,2.380699 C 22.397993,22.898125 22.087938,23.275 22.002436,23 Z m 18.443713,-1.087132 c -0.369536,-0.597923 -0.267523,-1.491494 0.226698,-1.985715 0.531442,-0.531442 0.898582,-0.08727 0.898582,1.087133 0,2.27223 -0.185011,2.419968 -1.12528,0.898582 z M 81,21.5 C 80.315311,20.675 79.980111,20 80.255111,20 c 0.275,0 1.0602,0.675 1.744889,1.5 0.684689,0.825 1.019889,1.5 0.744889,1.5 -0.275,0 -1.0602,-0.675 -1.744889,-1.5 z m 23.07895,-0.08333 c 0.048,-1.164943 0.28494,-1.4019 0.60416,-0.604167 0.28887,0.721875 0.25335,1.584375 -0.0789,1.916667 -0.3323,0.332291 -0.56864,-0.258334 -0.52522,-1.3125 z M 110,22.616631 c 0,-0.210852 0.90062,-0.618886 2.00138,-0.906741 1.10076,-0.287855 1.7492,-0.115339 1.44098,0.383369 C 112.90411,22.964167 110,23.405705 110,22.616631 Z m 14.44615,-0.703763 c -0.36954,-0.597923 -0.26752,-1.491494 0.2267,-1.985715 0.53144,-0.531442 0.89858,-0.08727 0.89858,1.087133 0,2.27223 -0.18501,2.419968 -1.12528,0.898582 z M 154,22.059017 c 0,-0.517541 0.44485,-1.215913 0.98855,-1.551938 0.56686,-0.350339 0.7345,0.05106 0.39301,0.940983 C 154.71677,23.180479 154,23.497449 154,22.059017 Z M 59.194949,19.5 c 0.02038,-1.65 0.244498,-2.203936 0.498042,-1.230968 0.253543,0.972967 0.236869,2.322967 -0.03705,3 C 59.382014,21.946064 59.174569,21.15 59.194949,19.5 Z M 117.15789,20 c 0,-1.375 0.22698,-1.9375 0.50439,-1.25 0.27741,0.6875 0.27741,1.8125 0,2.5 -0.27741,0.6875 -0.50439,0.125 -0.50439,-1.25 z m 59.2408,0.75 c -0.39564,-0.6875 -0.3511,-0.916404 0.099,-0.508676 0.45007,0.407728 1.53472,0.182728 2.41032,-0.5 1.40859,-1.098305 1.43388,-1.039699 0.21957,0.508676 -1.63578,2.085769 -1.79908,2.11569 -2.72887,0.5 z M 70.564293,19.293128 c -0.542685,-1.425198 -0.427821,-1.540062 0.559795,-0.559795 0.683418,0.678334 0.990671,1.485241 0.682784,1.793128 -0.307887,0.307888 -0.867048,-0.247112 -1.242579,-1.233333 z m 18.514654,0.123539 c 0.04798,-1.164943 0.284941,-1.4019 0.604167,-0.604167 0.288871,0.721875 0.253344,1.584375 -0.07895,1.916667 -0.332292,0.332291 -0.568641,-0.258334 -0.52522,-1.3125 z M 149.116,18.75 c 0.0883,-1.712236 0.22587,-1.828813 0.57568,-0.487757 0.25283,0.969234 0.94516,1.462205 1.53851,1.095491 0.6414,-0.396406 0.78952,-0.198638 0.3653,0.487758 -1.18784,1.921964 -2.60283,1.296793 -2.47949,-1.095492 z M 159,20.321654 c 0,-0.556423 1.0125,-1.868923 2.25,-2.916666 L 163.5,15.5 161.51066,18 c -1.09414,1.375 -2.10664,2.6875 -2.25,2.916667 C 159.1173,21.145833 159,20.878078 159,20.321654 Z M 64.232003,17 c 0,-1.925 0.205795,-2.7125 0.457323,-1.75 0.251527,0.9625 0.251527,2.5375 0,3.5 -0.251528,0.9625 -0.457323,0.175 -0.457323,-1.75 z m -7.803432,0 c 0,-1.295238 0.338096,-1.633333 0.985715,-0.985714 0.647619,0.647619 0.647619,1.323809 0,1.971428 C 56.766667,18.633333 56.428571,18.295238 56.428571,17 Z M 38.22619,16.421277 c 0.949405,-0.991226 1.94144,-1.58698 2.204522,-1.323898 0.263082,0.263082 -0.513704,1.074085 -1.72619,1.80223 -2.106309,1.264918 -2.127619,1.243608 -0.478332,-0.478332 z m 84,0 c 0.94941,-0.991226 1.94144,-1.58698 2.20452,-1.323898 0.26308,0.263082 -0.5137,1.074085 -1.72619,1.80223 -2.10631,1.264918 -2.12762,1.243608 -0.47833,-0.478332 z M 167,17 c -0.90129,-0.58246 -1.02463,-0.975486 -0.30902,-0.984687 0.65504,-0.0084 1.4691,0.434687 1.80902,0.984687 0.7673,1.241525 0.42112,1.241525 -1.5,0 z m -31.92105,-1.583333 c 0.048,-1.164943 0.28494,-1.4019 0.60416,-0.604167 0.28887,0.721875 0.25335,1.584375 -0.0789,1.916667 -0.3323,0.332291 -0.56864,-0.258334 -0.52522,-1.3125 z M 11,14.059017 c 0,-0.517541 0.444846,-1.215913 0.988546,-1.551938 0.56686,-0.350339 0.734507,0.05106 0.393011,0.940983 C 11.716766,15.180479 11,15.497449 11,14.059017 Z"
       id="path16"
       inkscape:connector-curvature="0" />
    <path
       style="fill:#fcfcfc"
       d="M 98,50.166667 C 98,49.525 96.9875,48.947799 95.75,48.883999 93.917324,48.789513 93.841794,48.67986 95.342784,48.292806 96.580173,47.973725 97.021582,47.19053 96.686404,45.908807 96.411863,44.858963 96.53886,44 96.96862,44 c 0.914543,0 2.284678,6.080036 1.538324,6.826389 C 98.228125,51.105208 98,50.808333 98,50.166667 Z m 61,-2.676454 c 0,-3.411045 2.03162,-4.86611 3.49292,-2.501667 0.35034,0.56686 -0.0511,0.734507 -0.94098,0.393011 C 160.52136,44.986085 160,45.361813 160,46.5 c 0,1.112693 0.52622,1.512049 1.5,1.138374 1.99864,-0.76695 1.89163,-0.418177 -0.5,1.629598 -1.94508,1.665425 -2,1.616604 -2,-1.777759 z M 6.1600371,45.75 C 6.0159606,42.37399 6.2493267,42 8.5,42 c 2.250673,0 2.484039,0.37399 2.339963,3.75 -0.157566,3.692105 -0.166264,3.699824 -0.563359,0.5 C 10.041667,44.356855 9.2999457,43 8.5,43 7.7000543,43 6.9583327,44.356855 6.7233956,46.25 6.3263009,49.449824 6.3176034,49.442105 6.1600371,45.75 Z M 13.8125,48.316886 c 0.721875,-0.288871 1.584375,-0.253344 1.916667,0.07895 0.332291,0.332292 -0.258334,0.568641 -1.3125,0.52522 -1.164943,-0.04798 -1.4019,-0.284941 -0.604167,-0.604167 z M 18,48.104709 c 0,-0.573067 0.675,-0.782918 1.5,-0.466335 C 20.473781,48.012049 21,47.612693 21,46.5 21,45.387307 20.473781,44.987951 19.5,45.361626 18.675,45.678209 18,45.468358 18,44.895291 c 0,-0.573067 0.7875,-0.890281 1.75,-0.70492 0.9625,0.18536 1.75,1.224694 1.75,2.309629 0,1.084935 -0.7875,2.124269 -1.75,2.309629 C 18.7875,48.99499 18,48.677776 18,48.104709 Z M 23,46.5 c 0,-1.946751 0.497924,-2.484446 2.25,-2.429715 2.146901,0.06706 2.158356,0.109666 0.25,0.929715 l -2,0.859429 2,0.140571 2,0.140571 -2,0.794922 -2,0.794923 2,0.51879 c 1.823575,0.473027 1.801522,0.529024 -0.25,0.634793 C 23.485733,48.974957 23,48.460297 23,46.5 Z m 5,1.468615 c 0,-0.567261 0.712731,-1.304885 1.583846,-1.639163 1.285947,-0.493464 1.332968,-0.784009 0.25,-1.544746 C 28.772818,44.03938 28.806802,43.930464 30,44.252197 c 0.825,0.222452 1.643798,1.381711 1.819551,2.576131 C 32.059732,48.460598 31.625065,49 30.069551,49 28.931298,49 28,48.535877 28,47.968615 Z m 6.75,-0.861936 C 32.475651,44.800548 32.540073,44 35,44 c 1.466667,0 2,0.666667 2,2.5 0,2.918101 0.02336,2.911803 -2.25,0.606679 z M 41.654508,48.25 C 41.399569,47.8375 42.230041,47.5 43.5,47.5 c 1.269959,0 2.100431,0.3375 1.845492,0.75 C 45.090552,48.6625 44.260081,49 43.5,49 42.739919,49 41.909448,48.6625 41.654508,48.25 Z M 51,48 c 0,-0.55 -0.7875,-1.035526 -1.75,-1.078947 -1.393933,-0.06289 -1.4448,-0.195127 -0.25,-0.649944 0.825,-0.314049 1.830609,-1.066022 2.234687,-1.671053 0.404078,-0.605031 0.741578,0.137444 0.75,1.649944 C 51.993109,47.7625 51.775,49 51.5,49 51.225,49 51,48.55 51,48 Z m 5,-0.916667 c 0,-1.054166 -0.5625,-2.14364 -1.25,-2.421052 -0.746741,-0.301317 -0.545438,-0.536171 0.5,-0.583334 C 56.471053,44.023862 57,44.755639 57,46.5 57,47.875 56.775,49 56.5,49 56.225,49 56,48.1375 56,47.083333 Z m 2.495635,0.909604 c -0.34232,-0.553884 0.118853,-1.291508 1.024829,-1.639163 1.3301,-0.510407 1.390433,-0.812488 0.313382,-1.569068 C 58.772818,44.03938 58.806802,43.930464 60,44.252197 62.051601,44.805389 62.606931,49 60.628568,49 59.797774,49 58.837954,48.546822 58.495635,47.992937 Z m 5.534774,0.412051 C 64.013684,47.802731 64.9,46.495486 66,45.5 c 1.956982,-1.771044 1.998488,-1.747491 1.929715,1.095012 -0.05828,2.408618 -0.200989,2.57083 -0.835224,0.94934 -0.759155,-1.940865 -0.773513,-1.940865 -1.899306,0 -0.623902,1.075606 -1.148052,1.462892 -1.164776,0.860636 z M 69.09426,46.5 c -0.035,-1.65 0.266975,-2.504975 0.671053,-1.899944 C 70.169391,45.205087 71.175,45.95706 72,46.271109 c 1.236871,0.470832 1.207634,0.584845 -0.166667,0.649944 -0.916666,0.04342 -1.89364,0.641447 -2.171052,1.328947 -0.277413,0.6875 -0.533022,-0.1 -0.568021,-1.75 z m 14.376144,1.452113 c -1.034786,-1.67432 0.306276,-3.962568 2.248211,-3.836112 1.669503,0.108716 1.671474,0.144724 0.03139,0.573325 C 84.7875,44.940853 84,45.755657 84,46.5 c 0,0.744343 0.7875,1.559147 1.75,1.810674 1.577715,0.4123 1.583525,0.468743 0.05902,0.573325 -0.930041,0.0638 -1.982416,-0.355548 -2.338613,-0.931886 z M 92,48 c 0,-0.55 -0.7875,-1.035526 -1.75,-1.078947 -1.393933,-0.06289 -1.4448,-0.195127 -0.25,-0.649944 0.825,-0.314049 1.830609,-1.066022 2.234687,-1.671053 0.404078,-0.605031 0.741578,0.137444 0.75,1.649944 C 92.993109,47.7625 92.775,49 92.5,49 92.225,49 92,48.55 92,48 Z m 13.75525,-1.5 c -0.299,-1.564097 -0.0202,-2.5 0.74475,-2.5 0.76494,0 1.04375,0.935903 0.74475,2.5 -0.26285,1.375 -0.59798,2.5 -0.74475,2.5 -0.14677,0 -0.4819,-1.125 -0.74475,-2.5 z m 5.05725,1.816886 c 0.72187,-0.288871 1.58437,-0.253344 1.91667,0.07895 0.33229,0.332292 -0.25834,0.568641 -1.3125,0.52522 -1.16495,-0.04798 -1.4019,-0.284941 -0.60417,-0.604167 z m 5,0 c 0.72187,-0.288871 1.58437,-0.253344 1.91667,0.07895 0.33229,0.332292 -0.25834,0.568641 -1.3125,0.52522 -1.16495,-0.04798 -1.4019,-0.284941 -0.60417,-0.604167 z m 4.69458,-0.305432 c -0.35034,-0.56686 0.0511,-0.734507 0.94098,-0.393011 C 123.18048,48.283234 123.49745,49 122.05902,49 c -0.51754,0 -1.21592,-0.444846 -1.55194,-0.988546 z m 3.57187,-1.428121 c -0.0434,-1.604166 0.0484,-2.729166 0.20402,-2.5 0.15563,0.229167 0.94313,1.290548 1.75,2.358625 0.80687,1.068078 0.94296,1.627774 0.30244,1.24377 -0.64052,-0.384004 -1.3925,-0.132885 -1.67105,0.558041 -0.27856,0.690927 -0.54199,-0.05627 -0.58541,-1.660436 z m 5.73355,1.733553 c 0.72187,-0.288871 1.58437,-0.253344 1.91667,0.07895 0.33229,0.332292 -0.25834,0.568641 -1.3125,0.52522 -1.16495,-0.04798 -1.4019,-0.284941 -0.60417,-0.604167 z M 141,46.5 c 0,-1.946751 0.49792,-2.484446 2.25,-2.429715 2.1469,0.06706 2.15836,0.109666 0.25,0.929715 l -2,0.859429 2,0.140571 2,0.140571 -2,0.794922 -2,0.794923 2,0.51879 c 1.82358,0.473027 1.80152,0.529024 -0.25,0.634793 C 141.48573,48.974957 141,48.460297 141,46.5 Z m 13.8125,1.816886 c 0.72187,-0.288871 1.58437,-0.253344 1.91667,0.07895 0.33229,0.332292 -0.25834,0.568641 -1.3125,0.52522 -1.16495,-0.04798 -1.4019,-0.284941 -0.60417,-0.604167 z m 11,0 c 0.72187,-0.288871 1.58437,-0.253344 1.91667,0.07895 0.33229,0.332292 -0.25834,0.568641 -1.3125,0.52522 -1.16495,-0.04798 -1.4019,-0.284941 -0.60417,-0.604167 z m 10,0 c 0.72187,-0.288871 1.58437,-0.253344 1.91667,0.07895 0.33229,0.332292 -0.25834,0.568641 -1.3125,0.52522 -1.16495,-0.04798 -1.4019,-0.284941 -0.60417,-0.604167 z M 180,46.5 c 0,-1.982339 0.43925,-2.562056 1.75,-2.309629 0.9625,0.18536 1.75,1.224694 1.75,2.309629 0,1.084935 -0.7875,2.124269 -1.75,2.309629 C 180.43925,49.062056 180,48.482339 180,46.5 Z m 5.33583,0.932783 c -0.7217,-1.880737 1.04795,-3.931662 2.57704,-2.986634 1.67762,1.03683 1.28667,2.552105 -0.66287,2.569164 -1.49555,0.01309 -1.5319,0.156261 -0.25,0.984687 1.04886,0.677823 1.11461,0.97398 0.21862,0.984687 -0.70477,0.0084 -1.55202,-0.689935 -1.88279,-1.551904 z M 13.8125,46.316886 c 0.721875,-0.288871 1.584375,-0.253344 1.916667,0.07895 0.332291,0.332292 -0.258334,0.568641 -1.3125,0.52522 -1.164943,-0.04798 -1.4019,-0.284941 -0.604167,-0.604167 z m 96.58265,-0.03416 c 1.54589,-0.395844 1.63803,-0.664932 0.5,-1.46013 -1.17972,-0.824323 -1.17318,-0.914844 0.0423,-0.586223 2.4838,0.671501 2.40116,2.772181 -0.10417,2.64763 -1.91528,-0.09522 -1.99378,-0.202946 -0.43818,-0.601277 z m 19.41735,0.03416 c 0.72187,-0.288871 1.58437,-0.253344 1.91667,0.07895 0.33229,0.332292 -0.25834,0.568641 -1.3125,0.52522 -1.16495,-0.04798 -1.4019,-0.284941 -0.60417,-0.604167 z m 5,0 c 0.72187,-0.288871 1.58437,-0.253344 1.91667,0.07895 0.33229,0.332292 -0.25834,0.568641 -1.3125,0.52522 -1.16495,-0.04798 -1.4019,-0.284941 -0.60417,-0.604167 z M 150,45 c -0.5887,-1.1 -0.84537,-2 -0.57037,-2 0.275,0 0.98167,0.9 1.57037,2 0.5887,1.1 0.84537,2 0.57037,2 -0.275,0 -0.98167,-0.9 -1.57037,-2 z m 4.8125,1.316886 c 0.72187,-0.288871 1.58437,-0.253344 1.91667,0.07895 0.33229,0.332292 -0.25834,0.568641 -1.3125,0.52522 -1.16495,-0.04798 -1.4019,-0.284941 -0.60417,-0.604167 z m 11,0 c 0.72187,-0.288871 1.58437,-0.253344 1.91667,0.07895 0.33229,0.332292 -0.25834,0.568641 -1.3125,0.52522 -1.16495,-0.04798 -1.4019,-0.284941 -0.60417,-0.604167 z M 170,46.622445 c 0,-0.207656 0.7875,-0.995156 1.75,-1.75 1.58606,-1.243871 1.62143,-1.208501 0.37756,0.377555 C 170.82119,46.915748 170,47.445479 170,46.622445 Z m -49.26667,-1.746533 c 0.67834,-0.683418 1.48524,-0.990671 1.79313,-0.682784 0.30789,0.307887 -0.24711,0.867048 -1.23333,1.242579 -1.4252,0.542685 -1.54006,0.427821 -0.5598,-0.559795 z M 13.8125,44.316886 c 0.721875,-0.288871 1.584375,-0.253344 1.916667,0.07895 0.332291,0.332292 -0.258334,0.568641 -1.3125,0.52522 -1.164943,-0.04798 -1.4019,-0.284941 -0.604167,-0.604167 z m 102,0 c 0.72187,-0.288871 1.58437,-0.253344 1.91667,0.07895 0.33229,0.332292 -0.25834,0.568641 -1.3125,0.52522 -1.16495,-0.04798 -1.4019,-0.284941 -0.60417,-0.604167 z m 19,0 c 0.72187,-0.288871 1.58437,-0.253344 1.91667,0.07895 0.33229,0.332292 -0.25834,0.568641 -1.3125,0.52522 -1.16495,-0.04798 -1.4019,-0.284941 -0.60417,-0.604167 z m 41,0 c 0.72187,-0.288871 1.58437,-0.253344 1.91667,0.07895 0.33229,0.332292 -0.25834,0.568641 -1.3125,0.52522 -1.16495,-0.04798 -1.4019,-0.284941 -0.60417,-0.604167 z M 41.654508,42.75 C 41.909448,42.3375 42.739919,42 43.5,42 c 0.760081,0 1.590552,0.3375 1.845492,0.75 0.254939,0.4125 -0.575533,0.75 -1.845492,0.75 -1.269959,0 -2.100431,-0.3375 -1.845492,-0.75 z M 24.050173,32.09375 c -1.38282,-2.583823 -1.35455,-13.787601 0.03696,-14.647601 0.597923,-0.369536 1.553124,-0.205893 2.12267,0.363653 0.714049,0.714049 1.785059,0.694031 3.449807,-0.06448 1.922417,-0.875911 2.736442,-0.777843 3.995655,0.48137 1.934666,1.934665 0.855417,4.070166 -1.654414,3.273577 C 29.477278,20.699319 27,24.49546 27,29.163489 c 0,4.321555 -1.439788,5.751793 -2.949827,2.930261 z M 59.511541,31.052546 C 58.726696,27.47917 59.831291,15.29815 61.173786,12.721992 62.5883,10.007633 64,11.663775 64,16.037578 c 0,3.861812 0.03844,3.902031 2.609547,2.730555 2.240106,-1.02066 2.806398,-0.91978 4,0.712569 C 72.201919,21.658401 72.454503,30.760992 70.984687,33 69.482884,35.287736 68.034165,32.482386 68.015313,27.25 68.002935,23.814525 67.651669,23 66.182489,23 c -1.40277,0 -2.030298,1.182079 -2.75,5.18019 -1.07179,5.95404 -2.943019,7.324839 -3.920948,2.872356 z m 14.83056,1.396573 C 73.997077,31.55 74.739425,29.841821 76.10853,28.384475 l 2.361558,-2.513763 -2.278384,-3.958779 c -2.007079,-3.487377 -2.124376,-4.279127 -0.985044,-6.649028 1.757497,-3.655734 6.267929,-6.1883161 7.977131,-4.479114 1.005985,1.005985 0.715851,1.753943 -1.464651,3.775818 -3.251268,3.014746 -3.296471,3.436717 -0.71914,6.713262 2.77113,3.52292 2.502248,6.378727 -0.923077,9.804052 -3.278363,3.278363 -4.85829,3.656399 -5.734822,1.372196 z M 136.75,32.919901 C 135.42206,32.14645 135,30.586117 135,26.45031 135,22.272257 134.64986,21 133.5,21 c -2.1553,0 -1.85237,-2.753387 0.38092,-3.462205 1.07654,-0.34168 2.14233,-1.904033 2.49219,-3.653325 0.73731,-3.686561 2.98875,-3.397131 3.44331,0.442649 C 139.99045,15.797203 140.7514,17 141.50741,17 c 2.57999,0 2.61086,1.988992 0.049,3.156262 C 139.38621,21.14506 139,21.976626 139,25.660515 139,29.201834 139.33721,30 140.83333,30 c 2.54019,0 3.35667,1.066142 2.03555,2.657991 -1.31274,1.581758 -3.67895,1.68304 -6.11888,0.26191 z M 161,32 c -2.93527,-2.93527 -2.73652,-10.032215 0.3825,-13.65829 2.12927,-2.475425 2.65658,-2.644934 4.96128,-1.594843 C 172.54617,19.572864 170.84457,34 164.30887,34 163.58899,34 162.1,33.1 161,32 Z m 5.52291,-4.072172 c 0.88562,-2.790352 -0.30154,-7.166774 -1.80979,-6.671749 -1.3364,0.43862 -2.17503,5.097816 -1.31908,7.328394 0.79156,2.062759 2.37096,1.731294 3.12887,-0.656645 z M 12.408348,31.851704 C 11.086065,29.712205 10.700467,16.4282 11.895813,14.194675 13.203714,11.75084 20.693551,9.2935508 22.210576,10.810576 23.267258,11.867258 19.458577,16 17.42807,16 c -0.657144,0 -1.437515,0.928117 -1.734158,2.062482 -0.475164,1.817027 -0.202851,1.988573 2.288168,1.441454 3.324916,-0.730274 4.744715,0.81487 2.468212,2.686117 C 16.044484,25.811551 15,27.201106 15,29.440983 c 0,2.778179 -1.50141,4.17477 -2.591652,2.410721 z M 38.07258,30.365141 c -2.959168,-3.761972 -2.782113,-9.746518 0.381965,-12.910596 2.844398,-2.844397 4.769031,-3.088112 6.974026,-0.883116 2.875227,2.875226 1.419139,7.361039 -3.203712,9.869769 -2.054658,1.115022 -2.278263,1.488574 -0.909118,1.518764 0.998658,0.02202 2.658848,-0.411179 3.689312,-0.962666 3.188656,-1.706517 3.639556,1.051484 0.599427,3.666493 -3.491034,3.00286 -4.981417,2.943765 -7.5319,-0.298648 z m 4.853534,-8.776113 C 43.726623,20.624473 43.765363,19.97302 43.048558,19.530011 41.6522,18.667014 40,19.766656 40,21.559017 c 0,1.836083 1.415161,1.850597 2.926114,0.03001 z m 5.740553,10.744305 C 47.437819,31.104485 47.983755,29 49.531385,29 c 2.356447,0 2.911153,-2.85352 0.971375,-4.99695 -2.298197,-2.539479 -1.257865,-6.701879 2.051953,-8.209933 1.914448,-0.872281 2.785788,-0.848561 3.722413,0.101329 0.965455,0.97913 0.854493,1.51236 -0.527126,2.533117 C 53.603534,20.0134 53.499178,22.339465 55.5,24 c 2.144311,1.77962 1.859705,3.731204 -0.954545,6.545455 -2.426241,2.42624 -4.584154,3.082512 -5.878788,1.787878 z M 86.985143,30.97224 C 85.213707,27.662281 85.155559,16.5 86.909753,16.5 c 0.784095,0 1.893616,1.724563 2.50001,3.885841 l 1.090256,3.885842 1.733812,-3.635842 C 93.187427,18.636129 94.373649,17 94.86988,17 c 0.49623,0 1.713576,1.6875 2.705213,3.75 l 1.802976,3.75 0.703611,-3.342649 c 0.86712,-4.119376 2.49667,-5.979003 3.9584,-4.517276 2.10653,2.106536 -2.85831,17.208333 -5.184702,15.770544 -0.582695,-0.360126 -1.726245,-2.25065 -2.541223,-4.201165 l -1.481776,-3.546391 -2.16619,3.840726 c -2.623181,4.650989 -4.156441,5.3172 -5.681046,2.468451 z m 22.040297,0.0532 c -2.7347,-2.734694 -3.42555,-6.28305 -2.04043,-10.480006 1.46175,-4.429159 4.32681,-6.180014 7.64148,-4.66975 1.72561,0.786242 2.37351,1.895441 2.37351,4.063455 0,2.93703 -0.53873,3.722758 -4.5,6.563168 -1.97752,1.417974 -1.97538,1.434448 0.19098,1.465894 C 113.89602,27.985688 115.16008,27.55 115.5,27 116.5335,25.327762 118,25.8811 118,27.943296 118,29.944175 114.54182,33 112.27749,33 c -0.70262,0 -2.16604,-0.888554 -3.25205,-1.974564 z m 4.7864,-10.28692 c 0.46613,-2.420401 -1.50601,-2.178481 -2.85963,0.350788 -0.95762,1.789325 -0.85664,2.038939 0.70333,1.738517 1.00182,-0.192934 1.97216,-1.13312 2.1563,-2.089305 z m 8.26074,9.626625 c -2.95917,-3.761972 -2.78211,-9.746518 0.38197,-12.910596 2.84439,-2.844397 4.76903,-3.088112 6.97402,-0.883116 2.87523,2.875226 1.41914,7.361039 -3.20371,9.869769 -2.05466,1.115022 -2.27826,1.488574 -0.90912,1.518764 0.99866,0.02202 2.65885,-0.411179 3.68931,-0.962666 3.18866,-1.706517 3.63956,1.051484 0.59943,3.666493 -3.49103,3.00286 -4.98142,2.943765 -7.5319,-0.298648 z m 4.85353,-8.776113 c 0.80051,-0.964555 0.83925,-1.616008 0.12245,-2.059017 C 125.6522,18.667014 124,19.766656 124,21.559017 c 0,1.836083 1.41516,1.850597 2.92611,0.03001 z M 145.75,32.421253 C 145.3375,32.00623 145,27.501565 145,22.410885 v -9.255781 l 3.4843,-1.149923 c 1.91637,-0.632457 4.39032,-0.862363 5.49768,-0.510902 2.8132,0.892876 3.61306,4.948632 1.58605,8.042232 -1.48893,2.272398 -1.49984,2.67454 -0.11023,4.064144 2.07428,2.074286 1.94389,4.725847 -0.33377,6.787101 -2.081,1.883281 -8.2033,3.211384 -9.37403,2.033497 z M 151.77083,26.1875 C 151.98854,25.534375 151.45417,25 150.58333,25 149.7125,25 149,25.7125 149,26.583333 c 0,1.765927 2.15276,1.45839 2.77083,-0.395833 z m 0.27501,-7.273146 c 1.29126,-2.412742 0.70435,-3.416208 -1.50271,-2.569277 C 148.87554,16.984989 148.37673,21 149.96482,21 c 0.53065,0 1.4671,-0.938541 2.08102,-2.085646 z m 19.56603,13.26665 c -0.28023,-0.453423 0.17585,-2.142139 1.01352,-3.752704 1.27281,-2.447186 1.31998,-3.545234 0.28713,-6.683268 -1.58384,-4.812034 -0.36202,-6.031753 2.48004,-2.475774 l 2.21328,2.769258 2.19047,-2.519258 c 4.13263,-4.752948 5.6479,-2.592107 2.15053,3.066758 -1.95628,3.165325 -1.97286,3.444642 -0.35135,5.91938 2.33237,3.559648 0.46625,5.556345 -2.45902,2.631079 -1.13493,-1.13494 -2.33,-1.632359 -2.65569,-1.105378 -0.96462,1.56079 -4.3179,3.041459 -4.86891,2.149907 z"
       id="path14"
       inkscape:connector-curvature="0" />
  </g>
</svg>
